<svg id="Calque_1" data-name="Calque 1" xmlns="http://www.w3.org/2000/svg" viewBox="0 0 22.73 21.07"><path d="M32.38,30.51a.59.59,0,1,0-.58-.58A.58.58,0,0,0,32.38,30.51Zm0-.9a.31.31,0,0,1,.31.32.31.31,0,0,1-.61,0A.31.31,0,0,1,32.38,29.61Z" transform="translate(-21.52 -27.34)"/><path d="M30.79,32.53a.59.59,0,0,0,.58-.59.58.58,0,1,0-1.16,0A.59.59,0,0,0,30.79,32.53Zm0-.9a.31.31,0,1,1,0,.62.31.31,0,0,1,0-.62Z" transform="translate(-21.52 -27.34)"/><path d="M35.78,32.45a.58.58,0,0,0,.58-.59.58.58,0,0,0-.58-.59.58.58,0,0,0-.58.59A.59.59,0,0,0,35.78,32.45Zm0-.9a.31.31,0,0,1,0,.62.31.31,0,0,1,0-.62Z" transform="translate(-21.52 -27.34)"/><path d="M37.63,33.13a.58.58,0,1,0,1.16,0,.58.58,0,1,0-1.16,0Zm.58-.31a.31.31,0,0,1,0,.62.3.3,0,0,1-.3-.31A.3.3,0,0,1,38.21,32.82Z" transform="translate(-21.52 -27.34)"/><path d="M33.9,34.17a.58.58,0,0,0,.58-.59.58.58,0,1,0-1.16,0A.58.58,0,0,0,33.9,34.17Zm0-.9a.31.31,0,0,1,0,.62.31.31,0,0,1,0-.62Z" transform="translate(-21.52 -27.34)"/><path d="M26.73,32.89a.59.59,0,1,0-.58-.58A.58.58,0,0,0,26.73,32.89Zm0-.89a.31.31,0,0,1,.31.31.31.31,0,0,1-.31.31.3.3,0,0,1-.3-.31A.3.3,0,0,1,26.73,32Z" transform="translate(-21.52 -27.34)"/><path d="M28.32,30.61a.59.59,0,1,0-.58-.58A.58.58,0,0,0,28.32,30.61Zm0-.89a.31.31,0,0,1,.31.31A.31.31,0,1,1,28,30,.3.3,0,0,1,28.32,29.72Z" transform="translate(-21.52 -27.34)"/><path d="M37.33,30.51a.59.59,0,1,0-.59-.58A.58.58,0,0,0,37.33,30.51Zm0-.9a.31.31,0,0,1,.3.32.31.31,0,0,1-.61,0A.31.31,0,0,1,37.33,29.61Z" transform="translate(-21.52 -27.34)"/><path d="M44.25,39.09a.91.91,0,0,0-.61-.86,1.76,1.76,0,0,0,.61-1.35,1.79,1.79,0,0,0-.6-1.34.94.94,0,0,0,.56-1,7.8,7.8,0,0,0-7-7,43.51,43.51,0,0,0-8.69,0,7.72,7.72,0,0,0-5,2.53,7.8,7.8,0,0,0-2,4.49,1,1,0,0,0,.56,1l-.08.09a1.73,1.73,0,0,0-.52,1.25,1.75,1.75,0,0,0,.58,1.32l0,0h0a.91.91,0,0,0,0,1.69,1.87,1.87,0,0,0-.55,1.3,1.77,1.77,0,0,0,.61,1.35,1,1,0,0,0-.55,1,5.55,5.55,0,0,0,5.48,4.8H38.71a5.59,5.59,0,0,0,5.48-4.8,1,1,0,0,0-.55-1,1.79,1.79,0,0,0,.61-1.35,1.76,1.76,0,0,0-.55-1.29A.94.94,0,0,0,44.25,39.09Zm-21-3.46h19.2a1.2,1.2,0,0,1,.42.08c-.24.35-.36.18-1.08.74a1.56,1.56,0,0,1-1.13.47c-1.15,0-1.21-1-2.61-1s-1.46,1-2.61,1-1.2-1-2.6-1-1.45,1-2.6,1-1.2-1-2.61-1-1.45,1-2.6,1c-.92,0-1.06-.59-1.82-.9a.85.85,0,0,1-.39-.31A1.26,1.26,0,0,1,23.29,35.63Zm-1.2-1a7.25,7.25,0,0,1,1.85-4.18,7.17,7.17,0,0,1,4.65-2.35c1.43-.14,2.86-.21,4.3-.21s2.86.07,4.29.21a7.28,7.28,0,0,1,6.5,6.53.44.44,0,0,1-.44.48H22.53A.44.44,0,0,1,22.09,34.62Zm0,2.26a1.23,1.23,0,0,1,.37-.88,1.34,1.34,0,0,0,.63.51c.61.25.89.94,2,.94,1.39,0,1.45-1,2.6-1s1.22,1,2.61,1,1.45-1,2.6-1,1.22,1,2.6,1,1.45-1,2.61-1,1.21,1,2.61,1a2.13,2.13,0,0,0,1.47-.58c.6-.48.86-.38,1.19-.87a1.27,1.27,0,0,1,.36.88,1.25,1.25,0,0,1-1.23,1.26c-20.08,0-19.23,0-19.26,0A1.24,1.24,0,0,1,22.05,36.88ZM43.22,43a.46.46,0,0,1,.44.53,5,5,0,0,1-4.95,4.34H27.06a5,5,0,0,1-4.95-4.34.46.46,0,0,1,.44-.53Zm.5-1.78a1.25,1.25,0,0,1-1.23,1.25H23.29A1.25,1.25,0,0,1,23,40h10.9l4.8,2,.1,0a.27.27,0,0,0,.25-.16L39.92,40v0l2.77,0A1.25,1.25,0,0,1,43.72,41.23Zm-.37-1.76c-.5,0-.67,0-3.58,0h0a.27.27,0,0,0-.24.15s-.86,1.92-.81,1.8L35.34,40l-.1,0-1.19-.49h0l-.09,0H22.43a.38.38,0,0,1-.38-.38.39.39,0,0,1,.38-.38H43.34a.38.38,0,0,1,0,.76Z" transform="translate(-21.52 -27.34)"/></svg>