<svg id="Calque_1" data-name="Calque 1" xmlns="http://www.w3.org/2000/svg" viewBox="0 0 33.98 62.52"><path d="M214.65,452.35l-5.53-5.53a3.11,3.11,0,0,0-.09-4.28l-1.8-1.79a3.09,3.09,0,0,0-4.27-.09l-5.53-5.53a3.1,3.1,0,0,0-4.38,0l-.9.9,21.6,21.59.9-.9A3.1,3.1,0,0,0,214.65,452.35Z" transform="translate(-181.57 -434.22)"/><path d="M181.57,463.82v29.92a3,3,0,0,0,3.08,3H209a3.06,3.06,0,0,0,3.13-3V459.13H181.57ZM204,465.9a1.73,1.73,0,1,1,3.45,0v24.62a1.73,1.73,0,1,1-3.45,0Zm-9,0a1.8,1.8,0,1,1,3.59,0v24.62a1.8,1.8,0,0,1-3.59,0Zm-8.69,0a1.79,1.79,0,1,1,3.58,0v24.62a1.79,1.79,0,0,1-3.58,0Z" transform="translate(-181.57 -434.22)"/></svg>