<svg id="Calque_1" data-name="Calque 1" xmlns="http://www.w3.org/2000/svg" viewBox="0 0 18.7 24"><path d="M21.29,28.71a.52.52,0,0,0-.5.56h0l.5,9.18a.54.54,0,0,0,.54.5h0a.53.53,0,0,0,.5-.56h0l-.51-9.18a.52.52,0,0,0-.55-.5Z" transform="translate(-14.65 -18)"/><path d="M25.41,28.71a.53.53,0,0,0-.56.5l-.56,9.18a.54.54,0,0,0,.5.56h0a.53.53,0,0,0,.53-.5l.55-9.18a.52.52,0,0,0-.5-.56Z" transform="translate(-14.65 -18)"/><path d="M29.07,22.06a4.29,4.29,0,0,0-4.25,3.75H22.23C20,18.08,19.18,18,18.81,18s-1.09-.06-4.07,4.44a.53.53,0,0,0,.15.74.54.54,0,0,0,.74-.15,22.84,22.84,0,0,1,3-3.88,41.34,41.34,0,0,1,2.44,6.66H17.58a.54.54,0,0,0-.53.54v.08l2.29,15.11a.52.52,0,0,0,.52.46h7a.54.54,0,0,0,.53-.46L29,30.59h.1a4.27,4.27,0,1,0,0-8.53ZM26.36,40.93h-6l-2.12-14H28.45Zm2.78-11.41.45-3.1a.52.52,0,0,0-.45-.6H25.89a3.21,3.21,0,1,1,3.25,3.71Z" transform="translate(-14.65 -18)"/></svg>